<svg width="20" height="17" viewBox="0 0 20 17" fill="none" xmlns="http://www.w3.org/2000/svg">
<path d="M5.00002 10.6667L6.20835 8.25C6.34749 7.97388 6.5607 7.74191 6.82413 7.58002C7.08756 7.41814 7.39083 7.33272 7.70002 7.33333H16.6667M16.6667 7.33333C16.9213 7.33289 17.1726 7.39078 17.4014 7.50257C17.6301 7.61436 17.8302 7.77707 17.9863 7.97822C18.1424 8.17937 18.2504 8.41361 18.3018 8.66296C18.3533 8.91231 18.347 9.17014 18.2834 9.41667L16.9917 14.4167C16.8992 14.7749 16.6901 15.0922 16.3974 15.3185C16.1047 15.5448 15.745 15.6673 15.375 15.6667H3.33335C2.89133 15.6667 2.4674 15.4911 2.15484 15.1785C1.84228 14.866 1.66669 14.442 1.66669 14V3.16667C1.66669 2.25 2.41669 1.5 3.33335 1.5H6.60835C6.88287 1.50142 7.15278 1.57063 7.39411 1.70147C7.63543 1.83231 7.84071 2.02073 7.99169 2.25L8.67502 3.25C8.826 3.47927 9.03127 3.66769 9.2726 3.79853C9.51393 3.92937 9.78384 3.99858 10.0584 4H15C15.442 4 15.866 4.17559 16.1785 4.48816C16.4911 4.80072 16.6667 5.22464 16.6667 5.66667V7.33333Z" stroke="white" stroke-width="2" stroke-linecap="round" stroke-linejoin="round"/>
</svg>
