<svg width="20" height="17" viewBox="0 0 20 17" fill="none" xmlns="http://www.w3.org/2000/svg">
<path d="M3.33335 15.6667H16.6667C17.1087 15.6667 17.5326 15.4911 17.8452 15.1785C18.1578 14.866 18.3334 14.442 18.3334 14V5.66667C18.3334 5.22464 18.1578 4.80072 17.8452 4.48816C17.5326 4.17559 17.1087 4 16.6667 4H10.0584C9.78384 3.99858 9.51393 3.92937 9.2726 3.79853C9.03127 3.66769 8.826 3.47927 8.67502 3.25L7.99169 2.25C7.84071 2.02073 7.63543 1.83231 7.3941 1.70147C7.15278 1.57063 6.88287 1.50142 6.60835 1.5H3.33335C2.89133 1.5 2.4674 1.67559 2.15484 1.98816C1.84228 2.30072 1.66669 2.72464 1.66669 3.16667V14C1.66669 14.9167 2.41669 15.6667 3.33335 15.6667Z" stroke="white" stroke-opacity="0.6" stroke-width="2" stroke-linecap="round" stroke-linejoin="round"/>
</svg>
